<svg xmlns="http://www.w3.org/2000/svg" viewBox="0 0 640 400" role="img" aria-label="Hartă stilizată cu locația cafenelei LUMINA">
  <rect width="640" height="400" fill="#EFE6D6"/>
  <!-- spații verzi -->
  <rect x="40" y="40" width="150" height="110" rx="10" fill="#D9DEC4"/>
  <rect x="430" y="250" width="170" height="120" rx="10" fill="#D9DEC4"/>
  <circle cx="120" cy="300" r="46" fill="#CFE0D8"/>
  <!-- străzi -->
  <g stroke="#FBF6EE" stroke-linecap="round" fill="none">
    <path d="M-10 150 H650" stroke-width="22"/>
    <path d="M-10 280 H650" stroke-width="16"/>
    <path d="M230 -10 V410" stroke-width="20"/>
    <path d="M470 -10 V410" stroke-width="14"/>
    <path d="M60 -10 V410" stroke-width="12"/>
  </g>
  <g stroke="#C8893F" stroke-width="2.5" stroke-dasharray="2 8" stroke-linecap="round" fill="none" opacity="0.7">
    <path d="M-10 150 H650"/>
    <path d="M230 -10 V410"/>
  </g>
  <!-- etichetă zonă pietonală -->
  <text x="500" y="140" font-family="Segoe UI, sans-serif" font-size="13" font-weight="600" fill="#A66E2C" text-anchor="middle" letter-spacing="1">ZONĂ PIETONALĂ</text>
  <!-- pin locație -->
  <g transform="translate(230 150)">
    <ellipse cx="0" cy="44" rx="20" ry="6" fill="#3B2A20" opacity="0.18"/>
    <path d="M0 40 C-22 8 -22 -8 0 -28 C22 -8 22 8 0 40 Z" fill="#C8893F" stroke="#A66E2C" stroke-width="2"/>
    <circle cx="0" cy="-2" r="9" fill="#FBF6EE"/>
  </g>
  <text x="320" y="378" font-family="Georgia, serif" font-size="21" fill="#6B5444" text-anchor="middle">str. Eugen Doga 5 · Chișinău</text>
</svg>
