<svg xmlns="http://www.w3.org/2000/svg" viewBox="0 0 800 1000" role="img" aria-label="Interior cald de cafenea">
  <defs>
    <linearGradient id="g" x1="0" y1="0" x2="1" y2="1">
      <stop offset="0" stop-color="#C8893F"/>
      <stop offset="1" stop-color="#3B2A20"/>
    </linearGradient>
  </defs>
  <rect width="800" height="1000" fill="url(#g)"/>
  <circle cx="180" cy="200" r="120" fill="#FBF6EE" opacity="0.12"/>
  <circle cx="640" cy="780" r="180" fill="#6B7A4F" opacity="0.22"/>
  <g transform="translate(400 500)" fill="none" stroke="#FBF6EE" stroke-width="10" stroke-linecap="round" stroke-linejoin="round" opacity="0.92">
    <path d="M-110 -40 h150 a40 40 0 0 1 0 80 h-20" />
    <path d="M-110 -40 v90 a30 30 0 0 0 30 30 h80 a30 30 0 0 0 30 -30 v-90 z"/>
    <path d="M-70 -90 q10 20 0 40 M-30 -90 q10 20 0 40 M10 -90 q10 20 0 40" stroke-width="7"/>
  </g>
  <text x="400" y="900" font-family="Georgia, serif" font-size="46" fill="#FBF6EE" text-anchor="middle" opacity="0.9">LUMINA</text>
</svg>
